<svg width="132" height="45" fill="none" xmlns="http://www.w3.org/2000/svg"><g clip-path="url(#clip0_543_3489)"><path d="M117.7 4H-3.7A5.3 5.3 0 00-9 9.3v34.3a5.3 5.3 0 005.3 5.3h121.4a5.3 5.3 0 005.3-5.3V9.3a5.3 5.3 0 00-5.3-5.3z" fill="#fff"/><path d="M45.8 26.7l-3.4 9.8H44l1-3h3.3l1 3h1.8l-3.4-9.8h-1.9zm.8 1.6c0 .4.3 1 .4 1.4l1 2.6h-2.7l1-2.6c0-.5.2-1 .3-1.4zm9 1c-1 0-2 .3-2.6 1v-1h-1.4v9.9h1.6v-3.5c.6.6 1.3 1 2 1 1 0 2-.4 2.5-1 .7-.8 1-1.8 1-3 0-.8-.3-1.7-1-2.5-.4-.6-1.3-1-2-1h-.2l.1.1zm-.5 1c1.5 0 2 1.4 2 2.6 0 1.4-.7 2.4-2 2.4-.8 0-1.5-.6-1.8-1.4v-2c.2-1 1-1.6 2-1.6h-.2zm8.4-1c-1 0-1.8.3-2.4 1v-1h-1.4v9.9h1.6v-3.5c.6.6 1.3 1 2 1 1 0 2-.4 2.5-1 .7-.8 1-1.8 1-3 0-.8-.3-1.7-1-2.5-.5-.6-1.3-1-2.2-1l-.1.1zm-.3 1c1.4 0 2 1.4 2 2.6 0 1.5-.7 2.4-2 2.4-.8 0-1.6-.6-1.8-1.4v-2c.2-1 1-1.5 1.8-1.6zm10.4.5c-1.4-.5-2-1-2-1.7 0-.6.7-1.2 2-1.2.5 0 1 0 1.7.4h.2l.5-1c-.8-.5-1.6-.7-2.3-.6-2 0-3.4 1-3.4 2.7 0 1.2 1 2 2.7 2.8 1.3.6 1.8 1 1.8 2 0 .7-.8 1.4-2 1.4-.7 0-1.5-.2-2.2-.6l-.5 1.2c1 .4 1.8.7 2.7.6 2.6 0 3.6-1.5 3.6-2.8 0-1.3-.7-2.3-2.5-3l-.3-.2zm5.4-3l-1.5.4v1.2h-1v1h1v3.8c0 .6 0 1.3.6 2 .3.3.8.5 1.4.4h1.2v-1.3h-1c-.6 0-1-.3-1-1v-3.7h2v-1.2h-2v-1.7l.3.1zm5.7 1.4c-2 0-3.6 1.5-3.7 3.4v.4c0 2 1.4 3.5 3.3 3.6h.4c2 0 3.6-1.5 3.7-3.4v-.4c0-1-.3-2-1-2.6-.6-.7-1.5-1-2.5-1h-.2zm0 1.2c1.3 0 2 1.3 2 2.5 0 1.3-1 2.4-2 2.4-1.3 0-2-1-2-2.5 0-1.3.6-2.6 2-2.6v.2zm8.3-1l-.5-.2c-.8 0-1.6.5-2 1.2v-1H89v7.2h1.6v-4.5c.2-.7.8-1.3 1.7-1.3h.4v-1.4h.3zm3.5-.2c-2 0-3.5 1.6-3.5 3.8 0 1 .3 2 1 2.6.7.7 1.6 1 2.6 1s1.7 0 2.5-.5l-.3-1h-.2c-.6.3-1.2.4-2 .4-.5 0-1 0-1.5-.5s-.7-1-.7-1.7h5v-.7c0-1.6-.8-3.4-3-3.4h.1zm0 1c.3 0 .7.3 1 .6.4.3.6.8.6 1.3h-3.6c0-1 .8-1.6 1.8-1.7l.2-.2zm-64.4 1c-.6 1.2-1.2 2.3-2 3.3-1 1.8-2.8 4-5 4-1.7 0-2.2-1.2-4.7-1.2s-3 1.2-5 1.2-3.6-2-4.7-3.7C7.3 29.8 7 24.3 9 21.2c1.2-2 3.4-3.3 5.8-3.4 2.2 0 3.6 1 5.4 1 1.8 0 3-1 5.4-1 2 0 4 1 5.4 2.7-2 1-3.4 3.3-3.2 5.7.2 2.4 1.8 4.4 4 5h.3zM23.6 16c1-1.3 1.6-3 1.4-4.5-1.6.2-3 1-4.2 2.2-1 1.2-1.6 2.7-1.4 4.3 1.7 0 3.3-.8 4.3-2h-.1zm18.923 7.133V20.92h.407c.14-.127.272-.308.396-.54.125-.235.231-.548.318-.94.089-.393.147-.892.176-1.498l.136-2.67h3.757v5.648h.729v2.2h-.73V21.6h-4.46v1.532h-.73zm1.322-2.213h3.139v-4.968h-2.336l-.099 1.99c-.024.462-.068.88-.13 1.255a6.433 6.433 0 01-.237.991c-.097.287-.21.53-.337.732zm7.584.779c-.429 0-.805-.102-1.128-.306a2.078 2.078 0 01-.754-.856c-.179-.366-.269-.795-.269-1.285 0-.494.09-.926.27-1.294.18-.37.432-.655.753-.86.323-.203.7-.305 1.128-.305.428 0 .803.102 1.124.306.324.204.575.49.754.859.181.368.272.8.272 1.294 0 .49-.09.919-.272 1.285a2.05 2.05 0 01-.754.856 2.054 2.054 0 01-1.124.306zm0-.655c.325 0 .593-.083.803-.25.21-.167.366-.386.467-.658.1-.272.15-.567.15-.884 0-.317-.05-.613-.15-.887a1.494 1.494 0 00-.467-.664c-.21-.169-.478-.253-.803-.253-.326 0-.593.084-.804.253a1.5 1.5 0 00-.466.664c-.101.274-.151.57-.151.887 0 .317.05.612.15.884.102.272.257.49.467.658.21.167.478.25.804.25zm5.19.655c-.444 0-.827-.105-1.148-.315-.322-.21-.569-.5-.742-.868a2.942 2.942 0 01-.26-1.264c0-.482.09-.907.266-1.276a2.1 2.1 0 01.748-.868c.321-.21.696-.315 1.125-.315.333 0 .634.062.902.185.267.124.487.297.658.52.17.222.277.481.318.778h-.73a1.13 1.13 0 00-.37-.575c-.19-.169-.445-.253-.766-.253a1.28 1.28 0 00-.748.222 1.448 1.448 0 00-.497.621 2.3 2.3 0 00-.176.936c0 .367.057.686.173.958.117.272.282.483.494.634.214.15.465.225.754.225a1.3 1.3 0 00.516-.099 1.064 1.064 0 00.62-.729h.73a1.69 1.69 0 01-.945 1.288 2.06 2.06 0 01-.921.195zm2.559-4.165v-.68h3.856v.68h-1.557V21.6h-.73v-4.066h-1.57zm5.389 5.846a1.597 1.597 0 01-.532-.087l.186-.642c.177.045.333.061.47.049a.563.563 0 00.36-.182c.108-.107.206-.282.294-.522l.136-.371-1.755-4.77h.791l1.31 3.781h.05l1.31-3.781h.79l-2.014 5.437c-.09.245-.203.448-.337.609a1.247 1.247 0 01-.466.361 1.438 1.438 0 01-.593.118zm4.373-1.78v-4.745h3.732V21.6h-.73v-4.066H69.67V21.6h-.73zm8.24-2.706v.68h-2.62v-.68h2.62zm-2.447-2.04V21.6h-.73v-4.745h.73zm3.003 0V21.6h-.73v-4.745h.73zm3.26 4.845c-.43 0-.805-.102-1.128-.306a2.078 2.078 0 01-.754-.856c-.18-.366-.27-.795-.27-1.285 0-.494.09-.926.27-1.294.18-.37.432-.655.754-.86a2.074 2.074 0 011.127-.305c.428 0 .803.102 1.125.306.323.204.574.49.754.859.18.368.271.8.271 1.294 0 .49-.09.919-.271 1.285a2.05 2.05 0 01-.754.856 2.054 2.054 0 01-1.125.306zm0-.655c.325 0 .592-.083.802-.25.21-.167.366-.386.467-.658.1-.272.151-.567.151-.884 0-.317-.05-.613-.151-.887a1.494 1.494 0 00-.467-.664c-.21-.169-.478-.253-.803-.253-.325 0-.593.084-.803.253-.21.17-.366.39-.467.664-.1.274-.151.57-.151.887 0 .317.05.612.151.884.101.272.257.49.467.658.21.167.478.25.803.25zm5.71.556v-4.745h1.94c.51 0 .916.115 1.217.346.3.23.45.535.45.914 0 .289-.085.512-.256.67-.17.157-.39.263-.658.319.175.024.345.086.51.185.167.099.305.235.414.408.11.17.164.381.164.63 0 .243-.062.46-.186.652a1.27 1.27 0 01-.531.454 1.89 1.89 0 01-.828.167h-2.237zm.691-.667h1.545c.251 0 .448-.06.59-.18a.604.604 0 00.213-.488c0-.245-.07-.437-.213-.577-.142-.142-.339-.213-.59-.213h-1.545v1.458zm0-2.089h1.248c.196 0 .364-.027.504-.08a.712.712 0 00.321-.235.596.596 0 00.115-.364.54.54 0 00-.25-.47c-.167-.115-.397-.173-.69-.173h-1.248v1.322z" fill="#000"/></g><defs><clipPath id="clip0_543_3489"><path fill="#fff" d="M0 0h132v45H0z"/></clipPath></defs></svg>