<svg width="132" height="45" fill="none" xmlns="http://www.w3.org/2000/svg"><path d="M126.7 0H5.3A5.3 5.3 0 000 5.3v34.3a5.3 5.3 0 005.3 5.3h121.4a5.3 5.3 0 005.3-5.3V5.3a5.3 5.3 0 00-5.3-5.3z" fill="#fff"/><path d="M13.7 8.5c-.3.3-.4.8-.4 1.4v22.8c0 .6 0 1 .4 1.4l13-12.7v-.2l-13-13v.3z" fill="#5BC9F4"/><path d="M31 25.8l-4.4-4.3v-.2l4.3-4.4 5 3c1.5.7 1.5 2 0 3l-5 2.8.1.1z" fill="url(#paint0_linear_543_3480)"/><path d="M31 25.7l-4.4-4.4-13 13c.6.4 1.4.5 2.3 0l15-8.6" fill="url(#paint1_linear_543_3480)"/><path d="M31 17L16 8.4c-1-.5-1.8-.5-2.3 0l13 13L31 17z" fill="url(#paint2_linear_543_3480)"/><path d="M47.722 18.332V16.12h.408c.14-.127.272-.308.396-.54.125-.235.231-.548.318-.94a8.94 8.94 0 00.176-1.498l.136-2.67h3.757v5.648h.729v2.2h-.73V16.8h-4.46v1.532h-.73zm1.323-2.212h3.139v-4.968h-2.336l-.099 1.99c-.025.462-.068.88-.13 1.254a6.446 6.446 0 01-.237.992 3.42 3.42 0 01-.337.732zm7.584.779a2.07 2.07 0 01-1.128-.306 2.078 2.078 0 01-.754-.856c-.179-.366-.269-.795-.269-1.285 0-.494.09-.926.27-1.294.18-.37.432-.655.753-.86a2.07 2.07 0 011.128-.305c.428 0 .803.102 1.124.306.324.204.575.49.754.859.181.368.272.8.272 1.294 0 .49-.09.919-.272 1.285a2.05 2.05 0 01-.754.856 2.053 2.053 0 01-1.124.306zm0-.655c.325 0 .593-.084.803-.25.21-.167.365-.386.466-.658.101-.272.152-.567.152-.884 0-.317-.05-.613-.152-.887a1.494 1.494 0 00-.466-.664c-.21-.169-.478-.253-.803-.253-.326 0-.593.084-.804.253-.21.169-.365.39-.466.664-.101.274-.151.57-.151.887 0 .317.05.612.15.884.102.271.257.49.467.658.21.166.478.25.804.25zm5.19.655c-.444 0-.827-.105-1.149-.315-.32-.21-.568-.5-.741-.868a2.941 2.941 0 01-.26-1.264c0-.482.09-.907.266-1.276a2.1 2.1 0 01.748-.868c.321-.21.696-.315 1.124-.315.334 0 .635.062.903.185.267.124.487.297.658.52.17.222.277.481.318.778h-.73a1.13 1.13 0 00-.37-.575c-.19-.169-.445-.253-.766-.253a1.28 1.28 0 00-.748.222 1.45 1.45 0 00-.497.621 2.3 2.3 0 00-.176.936c0 .367.057.686.173.958.117.272.282.483.494.633.214.15.465.226.754.226a1.3 1.3 0 00.516-.099 1.064 1.064 0 00.62-.729h.73a1.69 1.69 0 01-.946 1.288c-.263.13-.57.195-.92.195zm2.559-4.165v-.68h3.856v.68h-1.557V16.8h-.73v-4.066h-1.57zm5.389 5.846a1.597 1.597 0 01-.532-.087l.186-.642c.177.045.333.061.47.049a.563.563 0 00.36-.182c.108-.108.206-.282.294-.523l.136-.37-1.755-4.77h.791l1.31 3.781h.05l1.31-3.781h.79l-2.014 5.437c-.09.245-.203.448-.337.609a1.258 1.258 0 01-.466.361 1.438 1.438 0 01-.593.118zm4.373-1.78v-4.745h3.732V16.8h-.73v-4.066H74.87V16.8h-.73zm8.24-2.706v.68h-2.62v-.68h2.62zm-2.447-2.04V16.8h-.73v-4.745h.73zm3.003 0V16.8h-.73v-4.745h.73zm3.26 4.845a2.07 2.07 0 01-1.129-.306 2.078 2.078 0 01-.753-.856c-.18-.366-.27-.795-.27-1.285 0-.494.09-.926.27-1.294.18-.37.432-.655.753-.86a2.07 2.07 0 011.128-.305c.429 0 .803.102 1.125.306.323.204.574.49.754.859.18.368.271.8.271 1.294 0 .49-.09.919-.272 1.285a2.05 2.05 0 01-.753.856 2.053 2.053 0 01-1.125.306zm0-.655c.325 0 .592-.084.802-.25.21-.167.366-.386.467-.658.1-.272.151-.567.151-.884 0-.317-.05-.613-.151-.887a1.494 1.494 0 00-.467-.664c-.21-.169-.478-.253-.803-.253-.325 0-.593.084-.803.253-.21.169-.366.39-.467.664-.1.274-.151.57-.151.887 0 .317.05.612.151.884.101.271.257.49.467.658.21.166.478.25.803.25zm8.885-2.15v.68h-2.62v-.68h2.62zm-2.447-2.04V16.8h-.729v-4.745h.73zm3.003 0V16.8h-.729v-4.745h.73zm2.728 4.857c-.3 0-.573-.056-.818-.17a1.405 1.405 0 01-.584-.497 1.403 1.403 0 01-.217-.791c0-.272.054-.492.161-.661.107-.171.25-.305.43-.402.179-.097.376-.169.593-.216.218-.05.437-.089.658-.117.288-.037.522-.065.701-.084.181-.02.313-.054.395-.102.085-.047.127-.13.127-.247V13.6c0-.305-.083-.541-.25-.71-.165-.17-.415-.254-.75-.254-.349 0-.622.077-.82.229a1.354 1.354 0 00-.417.488l-.692-.247c.124-.288.289-.513.495-.674.208-.162.434-.275.68-.34a2.85 2.85 0 01.728-.098c.153 0 .328.018.526.055.2.035.392.108.577.22.188.111.343.279.467.503.124.225.185.526.185.902V16.8h-.729v-.643h-.037c-.05.103-.132.214-.247.331a1.427 1.427 0 01-.46.3 1.774 1.774 0 01-.702.123zm.112-.655c.288 0 .531-.056.729-.17a1.156 1.156 0 00.605-1.004v-.667c-.03.037-.099.071-.204.102a3.43 3.43 0 01-.358.077 16.334 16.334 0 01-.698.093c-.19.025-.367.065-.532.12a.916.916 0 00-.395.244c-.099.107-.148.254-.148.44 0 .252.093.444.28.574.19.127.43.191.72.191z" fill="#000"/><path fill-rule="evenodd" clip-rule="evenodd" d="M103.2 32.7h1.6V22h-1.6v10.7zm14.5-7l-2 4.7-1.8-4.6h-2l3 6.5-1.6 3.6h1.6l4.5-10.2h-1.8.1zm-9.2 5.7c-.5 0-1.2-.2-1.2-1 0-.7 1-1 1.7-1s1 0 1.5.3c-.2 1-1 1.7-2 1.7zm.2-6c-1 0-2.3.6-2.8 1.8l1.3.6c.3-.6 1-.8 1.5-.8.8 0 1.6.5 1.7 1.4-.3 0-1-.3-1.7-.3-1.6 0-3 1-3 2.5 0 1.4 1 2.4 2.6 2.4 1 0 1.6-.6 2-1.2v.8h1.6v-4c0-2-1.4-3-3.3-3l.1-.2zm-10 1.7h-2.2v-3.6h2.3c1.2 0 2 1 2 1.8 0 1-.8 2-2 2l-.1-.2zm0-5H95v10.7h1.5v-4h2.3c1.7 0 3.5-1.4 3.5-3.5 0-2-1.8-3.3-3.5-3.3l-.1.1zm-21 9.4c-1 0-2-1-2-2.2 0-1.3 1-2.2 2-2.2s2 1 2 2.2c0 1.3-1 2.2-2 2.2zm2-5h-.2c-.3-.5-1-1-2-1-1.7 0-3.4 1.8-3.4 3.8 0 2 1.8 3.7 3.6 3.7 1 0 1.6-.5 2-1v.6c0 1.4-.8 2-2 2-1 0-1.6-.6-1.8-1.2l-1.4.6c.4 1 1.5 2.2 3.2 2.2 2 0 3.5-1 3.5-4V26h-1.4v.6l-.1-.1zm2.5 6.3h1.6V22h-1.6v10.8zm4-3.6c0-1.3 1-2 2-2 .6 0 1 .3 1.3.7L86.2 29v.2zm5-1c-.3-1-1.2-2.5-3-2.5-2 0-3.6 1.5-3.6 3.7 0 2 1.6 3.7 3.7 3.7 1.6 0 2.6-1.2 3-1.7l-1.2-1c-.4.7-1 1-1.7 1-1 0-1.4-.2-1.8-1l5-2-.3-.4-.1.2zm-39-1.3v1.5H56c-.2 1-.5 1.5-1 2s-1.4 1-2.8 1c-2.3 0-4-1.7-4-4s1.7-4.2 4-4.2c1.2 0 2 .5 2.8 1.2l1-1c-1-1-2-1.7-3.8-1.7-3.2 0-5.8 2.5-5.8 5.7 0 3 2.6 5.7 5.8 5.7 1.6 0 3-.7 4-1.7s1.3-2.5 1.3-3.7v-1H52l.2.2zm9.5 4.7c-1 0-2-1-2-2.2 0-1.3 1-2.2 2-2.2s2 1 2 2.2c0 1.3-1 2.2-2 2.2zm0-6c-2 0-3.7 1.7-3.7 3.8 0 2 1.7 3.7 3.7 3.7s3.7-1.7 3.7-3.8c0-2-1.7-3.7-3.7-3.7zm8 6c-1 0-2-1-2-2.2 0-1.3 1-2.2 2-2.2s2 1 2 2.2c0 1.3-1 2.2-2 2.2zm0-6c-2 0-3.6 1.7-3.6 3.8 0 2 1.7 3.7 3.7 3.7s3.7-1.7 3.7-3.8c0-2-1.6-3.7-3.7-3.7h-.1z" fill="#000"/><defs><linearGradient id="paint0_linear_543_3480" x1="35.023" y1="21.341" x2="10.16" y2="21.341" gradientUnits="userSpaceOnUse"><stop stop-color="#FEE000"/><stop offset=".194" stop-color="#FCCF0B"/><stop offset=".547" stop-color="#FAB318"/><stop offset=".828" stop-color="#F9A21B"/><stop offset="1" stop-color="#F99B1C"/></linearGradient><linearGradient id="paint1_linear_543_3480" x1="28.616" y1="23.688" x2="12.106" y2="51.58" gradientUnits="userSpaceOnUse"><stop stop-color="#EF4547"/><stop offset="1" stop-color="#C6186D"/></linearGradient><linearGradient id="paint2_linear_543_3480" x1="4.946" y1="-4.748" x2="18.483" y2="17.984" gradientUnits="userSpaceOnUse"><stop stop-color="#279E6F"/><stop offset=".317" stop-color="#4DAB6D"/><stop offset=".74" stop-color="#6ABA6A"/><stop offset="1" stop-color="#74C169"/></linearGradient></defs></svg>