<svg width="42" height="42" viewBox="0 0 42 42" fill="none" xmlns="http://www.w3.org/2000/svg">
<path d="M2.625 7V9.625C2.625 16.8875 6.4925 23.24 12.25 26.775V35H38.5V31.5C38.5 26.845 29.1725 24.5 24.5 24.5H24.0625C15.75 24.5 8.75 17.5 8.75 9.625V7H2.625ZM24.5 7C22.6435 7 20.863 7.7375 19.5503 9.05025C18.2375 10.363 17.5 12.1435 17.5 14C17.5 15.8565 18.2375 17.637 19.5503 18.9497C20.863 20.2625 22.6435 21 24.5 21C26.3565 21 28.137 20.2625 29.4497 18.9497C30.7625 17.637 31.5 15.8565 31.5 14C31.5 12.1435 30.7625 10.363 29.4497 9.05025C28.137 7.7375 26.3565 7 24.5 7Z" fill="#C5528B"/>
<path d="M7.92956 1.62171C7.57354 1.42789 7.15837 1.38632 6.77309 1.5059C6.75433 1.10001 6.58546 0.717175 6.30151 0.436793C6.01756 0.156411 5.64031 0 5.24802 0C4.85572 0 4.47847 0.156411 4.19452 0.436793C3.91057 0.717175 3.7417 1.10001 3.72294 1.5059C3.33871 1.38604 2.92472 1.42361 2.56647 1.61085C2.30264 1.75449 2.08517 1.97497 1.94087 2.2451C1.79658 2.51523 1.73176 2.8232 1.75442 3.13104C1.77708 3.43887 1.88623 3.7331 2.0684 3.97745C2.25057 4.2218 2.49779 4.40557 2.77959 4.50611C2.59972 4.77122 2.50221 5.08686 2.50008 5.41088C2.50163 5.50187 2.50981 5.5926 2.52454 5.68231C2.58338 6.04985 2.76642 6.38375 3.04098 6.6244C3.31555 6.86504 3.66375 6.99676 4.02341 6.99604C4.09786 7.00132 4.17257 7.00132 4.24702 6.99604C4.64638 6.93087 5.00515 6.70608 5.24627 6.36994C5.4899 6.70064 5.84833 6.92003 6.24552 6.98156C6.31997 6.98685 6.39468 6.98685 6.46913 6.98156C6.74799 6.98123 7.02141 6.90161 7.2596 6.75139C7.49778 6.60116 7.69159 6.3861 7.81989 6.12963C7.94819 5.87316 8.00607 5.58514 7.98721 5.29694C7.96835 5.00875 7.87348 4.73144 7.71294 4.49526C7.99612 4.39645 8.24499 4.21357 8.42857 3.96936C8.61216 3.72515 8.72236 3.43041 8.74544 3.12182C8.76853 2.81323 8.70349 2.50442 8.55842 2.23383C8.41336 1.96324 8.19466 1.74281 7.92956 1.6V1.62171ZM4.66629 0.919612C4.82237 0.764771 5.03015 0.678336 5.24627 0.678336C5.46239 0.678336 5.67017 0.764771 5.82625 0.919612C5.94542 1.04323 6.02634 1.20082 6.0587 1.37227C6.09106 1.54373 6.07338 1.72128 6.00793 1.88229L5.91709 2.09581L5.6865 2.30572C5.54472 2.25531 5.39615 2.22844 5.24627 2.2261C5.05256 2.22629 4.861 2.26819 4.68375 2.34915L4.4881 1.88229C4.42029 1.72199 4.40102 1.54416 4.43284 1.37228C4.46465 1.2004 4.54605 1.04256 4.66629 0.919612ZM2.53502 3.39506C2.45702 3.21728 2.43993 3.01725 2.48656 2.82804C2.53319 2.63883 2.64075 2.47176 2.79147 2.35446C2.94219 2.23716 3.12705 2.17664 3.31547 2.18291C3.5039 2.18919 3.68462 2.26187 3.82776 2.38896L3.99896 2.54458L4.12124 2.8341C3.94621 3.07667 3.85072 3.3709 3.84872 3.67373C3.84457 3.72793 3.84457 3.78238 3.84872 3.83659H3.65656L3.36307 3.86554C3.19521 3.88389 3.02594 3.84866 2.87794 3.76457C2.72995 3.68048 2.6103 3.55155 2.53502 3.39506ZM4.84098 5.59546C4.79892 5.78865 4.69387 5.96094 4.54352 6.08329C4.39317 6.20564 4.2067 6.27059 4.01553 6.26719C3.82436 6.26379 3.64016 6.19225 3.49395 6.06463C3.34775 5.937 3.24847 5.76108 3.21283 5.5665C3.20948 5.51589 3.20948 5.46511 3.21283 5.4145C3.2141 5.2674 3.25249 5.1232 3.32421 4.99623C3.39592 4.86925 3.49845 4.76392 3.62162 4.69069L3.7998 4.5604L4.11775 4.52421C4.31814 4.81298 4.61414 5.01524 4.94929 5.0924L4.84098 5.59546ZM5.24627 4.39754C5.10806 4.39754 4.97296 4.35509 4.85805 4.27556C4.74314 4.19602 4.65357 4.08298 4.60068 3.95072C4.5478 3.81846 4.53396 3.67292 4.56092 3.53252C4.58788 3.39211 4.65443 3.26314 4.75216 3.16191C4.84989 3.06068 4.9744 2.99175 5.10994 2.96382C5.24549 2.93589 5.38599 2.95023 5.51368 3.00501C5.64136 3.05979 5.7505 3.15257 5.82728 3.2716C5.90406 3.39063 5.94504 3.53057 5.94504 3.67373C5.94504 3.86569 5.87142 4.0498 5.74038 4.18554C5.60933 4.32128 5.4316 4.39754 5.24627 4.39754ZM7.2797 5.56288C7.24366 5.78371 7.12532 5.98103 6.95019 6.11235C6.77505 6.24367 6.55712 6.29848 6.34335 6.26498C6.1749 6.2404 6.01772 6.16311 5.89284 6.04345C5.76796 5.9238 5.68134 5.7675 5.64457 5.59546L5.59566 5.37831L5.66903 5.04536C5.99134 4.93662 6.26452 4.71025 6.43768 4.4084L6.61237 4.51697H6.64382L6.87441 4.65811C7.02424 4.74674 7.14374 4.88144 7.21635 5.04355C7.28897 5.20566 7.31111 5.38716 7.2797 5.56288ZM7.95752 3.39144C7.8888 3.53529 7.78279 3.6565 7.65136 3.74151C7.51994 3.82651 7.36826 3.87196 7.21332 3.87278H7.12947L6.90586 3.83659L6.64382 3.6882C6.64333 3.33632 6.51913 2.99668 6.29443 2.73277L6.44467 2.59886L6.66478 2.38896C6.80833 2.25677 6.99178 2.18038 7.18371 2.17287C7.37565 2.16537 7.56413 2.22721 7.71689 2.34781C7.86966 2.46841 7.97719 2.64027 8.02109 2.83396C8.06498 3.02765 8.04251 3.23112 7.95752 3.40953V3.39144Z" fill="#C5528B"/>
</svg>
