<svg width="49" height="30" viewBox="0 0 49 30" fill="none" xmlns="http://www.w3.org/2000/svg">
<path d="M31.1244 3.20825H17.8755V26.7916H31.1244V3.20825Z" fill="#FF5F00"/>
<path d="M18.7168 15C18.7168 10.2083 20.988 5.95834 24.479 3.20834C21.9133 1.20834 18.6747 0 15.1416 0C6.77168 0 0 6.70833 0 15C0 23.2917 6.77168 30 15.1416 30C18.6747 30 21.9133 28.7917 24.479 26.7917C20.988 24.0833 18.7168 19.7917 18.7168 15Z" fill="#EB001B"/>
<path d="M49 15C49 23.2917 42.2283 30 33.8584 30C30.3253 30 27.0867 28.7917 24.521 26.7917C28.054 24.0417 30.2832 19.7917 30.2832 15C30.2832 10.2083 28.012 5.95834 24.521 3.20834C27.0867 1.20834 30.3253 0 33.8584 0C42.2283 0 49 6.75 49 15Z" fill="#F79E1B"/>
</svg>
