<svg width="53" height="15" viewBox="0 0 53 15" fill="none" xmlns="http://www.w3.org/2000/svg">
<path fill-rule="evenodd" clip-rule="evenodd" d="M14.2818 2.85388e-07V0.0065505C14.2753 0.0065505 12.2116 2.49871e-07 11.6613 1.97162C11.1569 3.77948 9.73523 8.77074 9.69592 8.9083H9.30284C9.30284 8.9083 7.84845 3.80568 7.33745 1.96507C6.78714 -0.00654999 4.71693 2.85388e-07 4.71693 2.85388e-07H0V15H4.71693V6.0917H4.91347H5.11001L7.86156 15H11.1372L13.8888 6.09825H14.2818V15H18.9988V2.85388e-07H14.2818Z" fill="#4DB45E"/>
<path fill-rule="evenodd" clip-rule="evenodd" d="M31.5119 0C31.5119 0 30.1295 0.124454 29.481 1.57205L26.1398 8.9083H25.7467V0H21.0298V15H25.4847C25.4847 15 26.9325 14.869 27.5811 13.4279L30.8567 6.0917H31.2498V15H35.9667V0H31.5119Z" fill="#4DB45E"/>
<path fill-rule="evenodd" clip-rule="evenodd" d="M38.063 6.81226V15H42.7799V10.2184H47.8899C50.1174 10.2184 52.0042 8.79697 52.7051 6.81226H38.063Z" fill="#4DB45E"/>
<path fill-rule="evenodd" clip-rule="evenodd" d="M47.89 0H37.4014C37.9255 2.8559 40.0677 5.14847 42.8389 5.8952C43.4679 6.0655 44.1295 6.15721 44.8109 6.15721H52.8952C52.9673 5.81659 53 5.46943 53 5.10917C53 2.28603 50.7136 0 47.89 0Z" fill="url(#paint0_linear_372_13952)"/>
<defs>
<linearGradient id="paint0_linear_372_13952" x1="37.4026" y1="3.0786" x2="53" y2="3.0786" gradientUnits="userSpaceOnUse">
<stop offset="0.3" stop-color="#00B4E6"/>
<stop offset="1" stop-color="#088CCB"/>
</linearGradient>
</defs>
</svg>
