<svg width="47" height="15" viewBox="0 0 47 15" fill="none" xmlns="http://www.w3.org/2000/svg">
<g clip-path="url(#clip0_372_13943)">
<path d="M20.3664 14.7836H16.5591L18.9405 0.263184H22.7476L20.3664 14.7836Z" fill="#00579F"/>
<path d="M34.1685 0.618191C33.4175 0.324391 32.2264 0 30.7536 0C26.9938 0 24.3461 1.97714 24.3299 4.80386C24.2986 6.88941 26.2255 8.04777 27.6667 8.74316C29.1397 9.45374 29.6404 9.91754 29.6404 10.5509C29.6254 11.5237 28.4501 11.9721 27.354 11.9721C25.8339 11.9721 25.0194 11.7409 23.7817 11.1997L23.2803 10.9677L22.7476 14.2272C23.6405 14.6284 25.2857 14.9844 26.9938 15C30.9887 15 33.5895 13.0535 33.6203 10.0411C33.6355 8.38818 32.618 7.12162 30.4245 6.08664C29.0928 5.42226 28.2773 4.97427 28.2773 4.29449C28.2929 3.6765 28.9671 3.04353 30.4703 3.04353C31.708 3.01253 32.6174 3.30591 33.3064 3.59951L33.6507 3.7537L34.1685 0.618191Z" fill="#00579F"/>
<path d="M39.2289 9.63952C39.5425 8.80534 40.749 5.57683 40.749 5.57683C40.7332 5.60783 41.0619 4.72725 41.2499 4.18667L41.516 5.43784C41.516 5.43784 42.237 8.91354 42.3936 9.63952C41.7985 9.63952 39.981 9.63952 39.2289 9.63952ZM43.9286 0.263184H40.9836C40.0755 0.263184 39.3855 0.525571 38.9937 1.46795L33.3384 14.7834H37.3333C37.3333 14.7834 37.991 12.9912 38.1324 12.6052C38.5706 12.6052 42.4568 12.6052 43.0206 12.6052C43.13 13.115 43.4749 14.7834 43.4749 14.7834H47.0002L43.9286 0.263184Z" fill="#00579F"/>
<path d="M13.3795 0.263184L9.65083 10.1647L9.24338 8.15656C8.55403 5.83943 6.3921 3.3219 3.97949 2.07012L7.39478 14.7682H11.4209L17.4054 0.263184H13.3795Z" fill="#00579F"/>
<path d="M6.18829 0.263184H0.0626675L0 0.556572C4.77837 1.76154 7.94299 4.66607 9.24319 8.15718L7.91155 1.48376C7.69232 0.556367 7.01859 0.293775 6.18829 0.263184Z" fill="#FAA61A"/>
</g>
<defs>
<clipPath id="clip0_372_13943">
<rect width="47" height="15" fill="white"/>
</clipPath>
</defs>
</svg>
