<svg width="40" height="41" fill="none" xmlns="http://www.w3.org/2000/svg"><path d="M21.006 7.862c-6.393 0-11.593 5.2-11.593 11.593 0 2.228.633 4.39 1.83 6.255l.288.449-1.128 4.005 4.144-1.067.427.261a11.57 11.57 0 006.032 1.69c6.393 0 11.594-5.2 11.594-11.593S27.399 7.862 21.006 7.862zm7.11 15.156l-.145.676a2.924 2.924 0 01-1.273 1.857c-.829.53-1.904.79-3.27.404-4.24-1.199-6.637-4.006-7.924-5.76-1.287-1.755-1.784-3.509-1.462-4.942.216-.96.918-1.698 1.357-2.08.215-.186.495-.281.779-.266l.906.05a.47.47 0 01.406.284l1.32 3.088a.47.47 0 01-.077.491l-1.149 1.33a.347.347 0 00-.043.387c1.513 2.914 4.27 4.069 5.093 4.358.14.05.296.003.387-.115l1.202-1.558a.47.47 0 01.568-.14l3.062 1.412c.2.092.308.31.262.524z" fill="#26AA1A"/><path d="M20 .5c11.046 0 20 8.954 20 20s-8.954 20-20 20-20-8.954-20-20S8.954.5 20 .5zm1.006 32.917c7.699 0 13.962-6.263 13.962-13.962S28.705 5.493 21.006 5.493 7.044 11.756 7.044 19.455c0 2.5.663 4.934 1.922 7.074l-1.958 6.954 7.172-1.846a13.944 13.944 0 006.826 1.78z" fill="#26AA1A"/></svg>