<svg width="42" height="42" fill="none" xmlns="http://www.w3.org/2000/svg"><path d="M17.5 19.834H21v2.333h-3.5v-2.334z" fill="#C5528B"/><path d="M30.858 16.532a25.783 25.783 0 00-8.248-8.365 11.247 11.247 0 00-10.5-.817 10.033 10.033 0 00-5.623 7.467c-.094.548-.164 1.073-.234 1.586A4.667 4.667 0 002.333 21v7.152a2.333 2.333 0 002.334 2.333V21A2.333 2.333 0 017 18.667h21.852a8.493 8.493 0 018.481 8.481V28H35a5.285 5.285 0 10.385 2.333h1.948A2.333 2.333 0 0039.667 28v-.852a10.827 10.827 0 00-8.809-10.616zm-18.025-.199H8.085c0-.361.105-.735.175-1.166a7.607 7.607 0 014.573-5.834v7zm2.334 0v-7.49a9.532 9.532 0 016.253 1.354 22.167 22.167 0 016.463 6.136H15.167zM30.1 33.11a2.916 2.916 0 110-5.833 2.916 2.916 0 010 5.833z" fill="#C5528B"/><path d="M16.532 28a5.285 5.285 0 10.385 2.333H23.1v-.291A6.999 6.999 0 0123.333 28h-6.801zm-4.865 5.11a2.916 2.916 0 110-5.833 2.916 2.916 0 010 5.833zm25.9-26.266a2.139 2.139 0 00-1.61-.155 2.124 2.124 0 00-4.243 0 2.178 2.178 0 00-1.61.14 2.125 2.125 0 00.297 3.89 2.14 2.14 0 00-.389 1.215c.003.122.014.244.035.365a2.11 2.11 0 002.085 1.764c.104.007.208.007.311 0a2.148 2.148 0 001.39-.84c.34.443.838.738 1.39.82.104.008.208.008.312 0a2.12 2.12 0 001.73-3.339 2.12 2.12 0 00.302-3.889v.03zm-4.54-.943a1.166 1.166 0 011.613 0 1.182 1.182 0 01.253 1.293l-.126.287-.321.282a1.978 1.978 0 00-.613-.107c-.27 0-.536.057-.782.165l-.273-.627a1.161 1.161 0 01.248-1.293zM30.06 9.226a1.152 1.152 0 011.799-1.351l.238.209.17.389a1.905 1.905 0 00-.38 1.128 1.377 1.377 0 000 .218h-.267l-.408.04a1.152 1.152 0 01-1.152-.633zm3.208 2.956a1.157 1.157 0 01-2.265-.04 1.513 1.513 0 010-.203 1.133 1.133 0 01.569-.973l.248-.175.442-.048c.279.388.69.66 1.157.763l-.15.676zm.564-1.61a.972.972 0 110-1.944.972.972 0 010 1.945zm2.83 1.566a1.148 1.148 0 01-1.303.943 1.162 1.162 0 01-.972-.9l-.069-.29.102-.448c.449-.146.829-.45 1.07-.856l.243.146h.044l.32.19a1.156 1.156 0 01.565 1.215zm.943-2.917a1.162 1.162 0 01-1.036.647h-.117l-.31-.049-.365-.199c0-.473-.174-.929-.486-1.283l.209-.18.306-.282a1.152 1.152 0 011.798 1.37v-.024z" fill="#C5528B"/><path d="M37.567 6.844a2.139 2.139 0 00-1.61-.155 2.124 2.124 0 00-4.243 0 2.178 2.178 0 00-1.61.14 2.125 2.125 0 00.297 3.89 2.14 2.14 0 00-.389 1.215c.003.122.014.244.035.365a2.11 2.11 0 002.085 1.764c.104.007.208.007.311 0a2.148 2.148 0 001.39-.84c.34.443.838.738 1.39.82.104.008.208.008.312 0a2.12 2.12 0 001.73-3.339 2.12 2.12 0 00.302-3.889v.03zm-4.54-.943a1.166 1.166 0 011.613 0 1.182 1.182 0 01.253 1.293l-.126.287-.321.282a1.978 1.978 0 00-.613-.107c-.27 0-.536.057-.782.165l-.273-.627a1.161 1.161 0 01.248-1.293zM30.06 9.226a1.152 1.152 0 011.799-1.351l.238.209.17.389a1.905 1.905 0 00-.38 1.128 1.377 1.377 0 000 .218h-.267l-.408.04a1.152 1.152 0 01-1.152-.633zm3.208 2.956a1.157 1.157 0 01-2.265-.04 1.513 1.513 0 010-.203 1.133 1.133 0 01.569-.973l.248-.175.442-.048c.279.388.69.66 1.157.763l-.15.676zm.564-1.61a.972.972 0 110-1.944.972.972 0 010 1.945zm2.83 1.566a1.148 1.148 0 01-1.303.943 1.162 1.162 0 01-.972-.9l-.069-.29.102-.448c.449-.146.829-.45 1.07-.856l.243.146h.044l.32.19a1.156 1.156 0 01.565 1.215zm.943-2.917a1.162 1.162 0 01-1.036.647h-.117l-.31-.049-.365-.199c0-.473-.174-.929-.486-1.283l.209-.18.306-.282a1.152 1.152 0 011.798 1.37v-.024z" stroke="#C5528B"/></svg>