<svg width="62" height="62" viewBox="0 0 62 62" fill="none" xmlns="http://www.w3.org/2000/svg">
<path d="M49.4062 36.8125C45.5463 36.8162 41.7668 37.9165 38.5081 39.9854C35.2494 42.0542 32.6456 45.0064 31 48.498C29.3544 45.0064 26.7506 42.0542 23.4919 39.9854C20.2332 37.9165 16.4537 36.8162 12.5938 36.8125H1.9375V38.75C1.9375 49.9676 11.0636 59.0938 22.2812 59.0938H39.7188C50.9364 59.0938 60.0625 49.9676 60.0625 38.75V36.8125H49.4062ZM22.2812 55.2188C13.8554 55.2188 6.88733 48.859 5.92584 40.6875H12.5938C21.0196 40.6875 27.9877 47.0472 28.9492 55.2188H22.2812ZM39.7188 55.2188H33.0508C34.0123 47.0472 40.9804 40.6875 49.4062 40.6875H56.0742C55.1127 48.859 48.1446 55.2188 39.7188 55.2188Z" fill="#C5528B"/>
<path d="M20.4923 31.8202C20.8588 33.999 21.8982 36.0084 23.4648 37.5664L24.0324 38.1339H24.8349C27.0443 38.14 29.2002 37.4542 31 36.1726C32.7997 37.4544 34.9556 38.1404 37.1651 38.1344H37.9676L38.5352 37.5669C40.1018 36.0089 41.1412 33.9995 41.5077 31.8207C43.6865 31.4542 45.6959 30.4147 47.2539 28.8482L47.8214 28.2806V27.4781C47.8276 25.2685 47.1418 23.1124 45.8601 21.3125C47.1419 19.5128 47.8279 17.3569 47.8219 15.1474V14.3449L47.2544 13.7773C45.6964 12.2107 43.687 11.1713 41.5082 10.8048C41.1417 8.626 40.1023 6.61658 38.5357 5.05857L37.9681 4.49112H37.1656C34.956 4.48488 32.7999 5.17072 31 6.45236C29.2003 5.17063 27.0444 4.48463 24.8349 4.49064H24.0324L23.4648 5.05809C21.8982 6.6161 20.8588 8.62551 20.4923 10.8043C18.3135 11.1708 16.3041 12.2102 14.7461 13.7768L14.1786 14.3444V15.1469C14.1724 17.3565 14.8582 19.5126 16.1399 21.3125C14.8581 23.1122 14.1721 25.2681 14.1781 27.4776V28.2801L14.7456 28.8477C16.3037 30.4144 18.3133 31.4538 20.4923 31.8202ZM20.0399 19.9426C18.9654 18.8745 18.2827 17.475 18.1024 15.9707C19.2936 15.0341 20.766 14.5269 22.2812 14.5312H24.2187V12.5937C24.2144 11.0786 24.7214 9.60639 25.6578 8.41529C27.1621 8.59557 28.5616 9.27823 29.6297 10.3528L31 11.7219L32.3699 10.3519C33.438 9.27739 34.8375 8.59473 36.3418 8.41444C37.2785 9.60572 37.7857 11.0783 37.7812 12.5937V14.5312H39.7188C41.2339 14.5269 42.7061 15.0339 43.8972 15.9703C43.7169 17.4746 43.0343 18.8741 41.9597 19.9422L40.5906 21.3125L41.9607 22.6826C43.0352 23.7506 43.7179 25.1501 43.8982 26.6544C42.7069 27.5911 41.2342 28.0983 39.7188 28.0937H37.7812V30.0312C37.7856 31.5464 37.2786 33.0186 36.3422 34.2097C34.8379 34.0294 33.4384 33.3468 32.3703 32.2722L31 30.9031L29.6299 32.2727C28.5619 33.3472 27.1624 34.0299 25.6581 34.2102C24.7215 33.019 24.2143 31.5466 24.2187 30.0312V28.0937H22.2812C20.7661 28.0981 19.2939 27.5911 18.1028 26.6547C18.2831 25.1503 18.9657 23.7509 20.0403 22.6828L21.4094 21.3125L20.0399 19.9426Z" fill="#C5528B"/>
</svg>
