<svg width="62" height="62" viewBox="0 0 62 62" fill="none" xmlns="http://www.w3.org/2000/svg">
<path d="M44.5625 7.75L41.7635 17.6829L36.1667 20.606L41.7635 23.5277L44.5625 32.2917L47.3615 23.5264L52.9583 20.6047L47.3615 17.6842L44.5625 7.75ZM25.8333 15.5L24.5417 20.6667L20.6667 21.9583L24.5417 23.25L25.8333 28.4167L27.125 23.25L31 21.9583L27.125 20.6667L25.8333 15.5ZM7.75 38.75C7.75 38.4074 7.88609 38.0789 8.12832 37.8367C8.37056 37.5944 8.6991 37.4583 9.04167 37.4583H12.9167C13.2592 37.4583 13.5878 37.5944 13.83 37.8367C14.0722 38.0789 14.2083 38.4074 14.2083 38.75V52.9532C14.2083 53.2957 14.0722 53.6243 13.83 53.8665C13.5878 54.1087 13.2592 54.2448 12.9167 54.2448H9.04167C8.6991 54.2448 8.37056 54.1087 8.12832 53.8665C7.88609 53.6243 7.75 53.2957 7.75 52.9532V38.7513V38.75ZM22.869 37.7025C24.0728 37.1535 27.0152 37.7025 27.0152 37.7025L35.5738 39.6219C35.5738 39.6219 37.7141 40.3077 39.72 40.3077C41.726 40.3077 40.526 43.0538 39.184 44.0122C37.8433 44.9707 36.8667 44.919 36.8667 44.919L29.9563 44.835C29.9563 44.835 35.9755 45.933 38.2488 46.0699C39.3997 46.1396 41.3747 45.3285 43.5834 44.423C45.734 43.5395 48.1042 42.5669 50.1502 42.2285C54.2965 41.5439 54.9656 45.2471 53.6274 46.6188C52.2905 47.9906 41.5917 53.2025 39.72 53.8883C38.2527 54.4257 36.4792 54.2474 34.4785 54.0459C33.9243 53.9904 33.3521 53.9323 32.7657 53.8883C30.4278 53.7114 28.6427 53.143 26.8757 52.5812C24.9795 51.9792 23.1053 51.3838 20.5956 51.2817C19.7535 51.2482 17.7824 51.3528 16.7917 51.4109V39.9642C18.5044 39.3545 21.9725 38.1093 22.869 37.7012V37.7025Z" fill="#C5528B"/>
</svg>
