<svg width="135" height="41" fill="none" xmlns="http://www.w3.org/2000/svg"><path fill-rule="evenodd" clip-rule="evenodd" d="M134.103 33.328c0 .978-.175 1.884-.54 2.703a6.192 6.192 0 01-1.49 2.089 7.181 7.181 0 01-2.236 1.344 7.766 7.766 0 01-2.746.497 7.355 7.355 0 01-2.499-.424 7.09 7.09 0 01-2.06-1.154 6.718 6.718 0 01-1.49-1.724 5.842 5.842 0 01-.774-2.148l.979-.205c.292 1.447.979 2.587 2.045 3.42 1.067.832 2.367 1.241 3.886 1.241.892 0 1.695-.146 2.411-.438a5.507 5.507 0 001.841-1.198 4.99 4.99 0 001.169-1.768c.277-.672.409-1.417.409-2.206 0-.701-.103-1.33-.307-1.9a4.08 4.08 0 00-1.008-1.519c-.468-.453-1.096-.862-1.885-1.212-.789-.351-1.768-.672-2.937-.98-1.081-.277-2.001-.598-2.746-.964-.745-.365-1.359-.774-1.826-1.227a4.202 4.202 0 01-1.023-1.563c-.219-.585-.322-1.227-.322-1.929 0-.89.176-1.709.512-2.454a5.753 5.753 0 011.402-1.929 6.346 6.346 0 012.046-1.241 7.016 7.016 0 012.498-.439c1.651 0 3.01.424 4.062 1.257a6.069 6.069 0 012.133 3.2l-1.052.248c-.365-1.14-1.008-2.046-1.958-2.703-.95-.658-2.045-.979-3.287-.979-.789 0-1.505.117-2.162.365-.658.249-1.213.585-1.681 1.037a4.499 4.499 0 00-1.081 1.564 5.015 5.015 0 00-.38 1.943c0 .628.088 1.183.263 1.665.176.483.497.906.935 1.3.439.38 1.038.731 1.783 1.053.745.321 1.665.613 2.761.89 1.169.322 2.148.688 2.951 1.082.804.394 1.461.862 1.958 1.388.497.526.862 1.11 1.081 1.768.263.657.365 1.402.365 2.25zm-18.116 6.34L105.41 28.375h4.032c.847 0 1.622-.132 2.323-.41a4.908 4.908 0 001.782-1.139 5.235 5.235 0 001.125-1.753c.263-.672.395-1.432.395-2.28 0-1.68-.497-3.023-1.491-4.017-.993-.993-2.352-1.49-4.061-1.49h-5.493v22.382h-1.052V16.293h6.603c1.023 0 1.929.16 2.732.496a5.732 5.732 0 012.046 1.373 5.918 5.918 0 011.285 2.075 7.33 7.33 0 01.439 2.557 7.22 7.22 0 01-.409 2.41 5.881 5.881 0 01-1.257 2.09c-.555.613-1.256 1.11-2.06 1.49-.818.38-1.768.584-2.849.584h-1.68l9.57 10.315h-1.403v-.015zm-30.432 0V16.293h11.76v.978H86.607v10.067h10.33v.979h-10.33V38.66h10.71v.98H85.555v.028zm-10.651.775L68.549 19.14l-6.356 21.302-6.706-24.136h1.052l5.684 20.498 6.326-21.258 6.326 21.258 5.683-20.498h1.052l-6.706 24.136zM53.077 27.98c0 1.666-.278 3.215-.848 4.661a12.04 12.04 0 01-2.323 3.813 10.777 10.777 0 01-3.448 2.557 9.857 9.857 0 01-4.222.935c-1.505 0-2.907-.307-4.222-.935a10.776 10.776 0 01-3.448-2.557c-.979-1.081-1.753-2.352-2.323-3.813a12.94 12.94 0 01-.847-4.66c0-1.666.277-3.215.847-4.661a12.04 12.04 0 012.323-3.813 10.774 10.774 0 013.448-2.557 9.858 9.858 0 014.222-.935c1.505 0 2.908.307 4.222.935a10.776 10.776 0 013.448 2.557c.98 1.08 1.754 2.352 2.323 3.813.57 1.446.848 3.01.848 4.66zm-1.081 0c0-1.548-.249-2.98-.76-4.31-.511-1.329-1.198-2.498-2.075-3.491a9.695 9.695 0 00-3.097-2.338 8.877 8.877 0 00-3.813-.847c-1.359 0-2.63.277-3.813.847a9.488 9.488 0 00-3.098 2.338 11.127 11.127 0 00-2.074 3.492c-.512 1.329-.76 2.775-.76 4.31 0 1.548.248 2.98.76 4.31.511 1.329 1.198 2.498 2.074 3.491a9.695 9.695 0 003.098 2.338 8.877 8.877 0 003.813.847c1.358 0 2.63-.277 3.813-.847a9.488 9.488 0 003.097-2.338 11.125 11.125 0 002.075-3.492c.511-1.314.76-2.76.76-4.31zm-34.64 11.688V16.293h1.051v22.382h10.71v.979H17.354v.014zM1.503 17.286v10.066h10.329v.98H1.503v11.336H.453V16.293h11.76v.978H1.505v.015zM94.262 1.288h-2.03v6.326h-.848V1.288h-2.03v-.76h4.908v.76zM81.332 5.57c0 .614-.233 1.11-.7 1.52-.468.409-1.053.613-1.74.613-.672 0-1.241-.19-1.68-.584a1.988 1.988 0 01-.73-1.403l.833-.175c.014.409.19.745.482.993.307.249.686.366 1.14.366.452 0 .832-.117 1.11-.366a1.17 1.17 0 00.438-.935.97.97 0 00-.38-.803c-.248-.19-.701-.366-1.33-.512-.745-.175-1.27-.409-1.592-.73-.307-.278-.453-.658-.453-1.125 0-.57.22-1.037.658-1.417.438-.38.978-.57 1.607-.57.613 0 1.125.16 1.548.497.38.306.614.716.687 1.212l-.833.176a1.183 1.183 0 00-.482-.79 1.607 1.607 0 00-.964-.292c-.394 0-.73.103-.979.307a.956.956 0 00-.394.79c0 .277.117.496.35.657.234.16.643.321 1.228.467.788.19 1.344.453 1.68.79.336.335.496.773.496 1.314zM68.797 7.614h-1.081l-3.068-3.681h1.066c.453 0 .804-.117 1.096-.366.278-.233.424-.555.424-.964a1.24 1.24 0 00-.424-.964c-.278-.248-.643-.365-1.096-.365h-1.388V7.6h-.847V.514h2.308c.702 0 1.271.205 1.695.614.395.38.6.876.6 1.475 0 .555-.176 1.023-.527 1.388-.35.365-.789.57-1.315.57l2.557 3.053zm-14.595 0h-.848V.53h.848v7.085zm-9.73-6.326h-3.317v2.367h3.2v.76H41.17v3.214h-.848V.543h4.179v.745h-.03z" fill="#131313"/></svg>