<svg width="42" height="42" fill="none" xmlns="http://www.w3.org/2000/svg"><path d="M2.625 7v2.625c0 7.262 3.867 13.615 9.625 17.15V35H38.5v-3.5c0-4.655-9.328-7-14-7h-.438c-8.312 0-15.312-7-15.312-14.875V7H2.625zM24.5 7a7 7 0 100 14 7 7 0 000-14z" fill="#C5528B"/><path d="M7.93 1.622a1.49 1.49 0 00-1.157-.116 1.607 1.607 0 00-.471-1.07A1.5 1.5 0 005.248 0a1.5 1.5 0 00-1.053.437c-.284.28-.453.663-.472 1.069a1.516 1.516 0 00-1.157.105 1.554 1.554 0 00-.625.634 1.629 1.629 0 00.127 1.732c.183.245.43.429.712.53-.18.264-.278.58-.28.904.002.09.01.182.025.271.058.368.241.702.516.942.275.241.623.373.982.372.075.005.15.005.224 0 .4-.065.758-.29 1-.626.243.33.601.55.999.612.074.005.149.005.223 0 .279 0 .552-.08.79-.23.239-.15.433-.366.56-.622a1.626 1.626 0 00-.106-1.635c.283-.099.532-.281.716-.526a1.625 1.625 0 00.13-1.736 1.55 1.55 0 00-.63-.633v.022zM4.666.92a.823.823 0 01.58-.242.823.823 0 01.813.694.909.909 0 01-.051.51l-.09.214-.232.21a1.378 1.378 0 00-.44-.08c-.193 0-.385.042-.562.123l-.196-.467A.893.893 0 014.666.92zM2.535 3.395a.886.886 0 01-.048-.567.86.86 0 01.304-.474.809.809 0 011.037.035l.171.156.122.29c-.175.242-.27.536-.272.839a1.067 1.067 0 000 .163h-.192l-.294.029a.804.804 0 01-.485-.101.845.845 0 01-.343-.37zm2.306 2.2a.866.866 0 01-.297.488.813.813 0 01-1.05-.018.868.868 0 01-.281-.499 1.15 1.15 0 010-.151.866.866 0 01.111-.419.829.829 0 01.298-.305l.178-.13.318-.037c.2.289.496.491.831.568l-.108.503zm.405-1.197a.682.682 0 01-.388-.122.719.719 0 01-.257-.325.748.748 0 01.151-.79.676.676 0 01.762-.157.705.705 0 01.313.268.742.742 0 01-.087.914.687.687 0 01-.494.212zM7.28 5.563a.859.859 0 01-.33.55.823.823 0 01-1.057-.069.873.873 0 01-.248-.449l-.05-.217.074-.333c.322-.108.596-.335.769-.637l.174.109h.032l.23.141a.85.85 0 01.342.386.89.89 0 01.064.519zm.678-2.172a.855.855 0 01-.307.35.814.814 0 01-.438.132H7.13l-.223-.036-.262-.149c0-.352-.125-.691-.35-.955l.15-.134.22-.21a.809.809 0 011.052-.041c.154.12.261.292.305.486a.886.886 0 01-.063.576v-.02z" fill="#C5528B"/></svg>