<svg width="62" height="62" viewBox="0 0 62 62" fill="none" xmlns="http://www.w3.org/2000/svg">
<path d="M21.3125 40.6875H17.4375V36.8125C17.439 35.2714 18.0519 33.7939 19.1416 32.7041C20.2314 31.6144 21.7089 31.0015 23.25 31H34.875V34.875H23.25C22.7363 34.8755 22.2438 35.0798 21.8805 35.4431C21.5173 35.8063 21.313 36.2988 21.3125 36.8125V40.6875ZM29.0625 29.0625C27.5297 29.0625 26.0313 28.608 24.7568 27.7564C23.4824 26.9048 22.489 25.6944 21.9024 24.2783C21.3159 22.8622 21.1624 21.3039 21.4614 19.8006C21.7604 18.2972 22.4986 16.9163 23.5824 15.8324C24.6663 14.7486 26.0472 14.0105 27.5506 13.7114C29.0539 13.4124 30.6122 13.5659 32.0283 14.1524C33.4444 14.739 34.6548 15.7324 35.5064 17.0068C36.358 18.2813 36.8125 19.7797 36.8125 21.3125C36.8099 23.3671 35.9926 25.3369 34.5397 26.7897C33.0869 28.2426 31.1171 29.0599 29.0625 29.0625ZM29.0625 17.4375C28.2961 17.4375 27.5469 17.6648 26.9097 18.0906C26.2724 18.5163 25.7758 19.1215 25.4825 19.8296C25.1892 20.5377 25.1124 21.3168 25.262 22.0685C25.4115 22.8202 25.7805 23.5106 26.3225 24.0525C26.8644 24.5945 27.5548 24.9635 28.3065 25.113C29.0582 25.2626 29.8373 25.1858 30.5454 24.8925C31.2535 24.5992 31.8587 24.1026 32.2844 23.4653C32.7102 22.8281 32.9375 22.0789 32.9375 21.3125C32.9365 20.2851 32.5279 19.3001 31.8014 18.5736C31.0749 17.8471 30.0899 17.4385 29.0625 17.4375ZM46.5 42.625C44.9672 42.625 43.4688 42.1705 42.1943 41.3189C40.9199 40.4673 39.9265 39.2569 39.3399 37.8408C38.7534 36.4247 38.5999 34.8664 38.8989 33.3631C39.1979 31.8597 39.9361 30.4788 41.0199 29.3949C42.1038 28.3111 43.4847 27.573 44.9881 27.2739C46.4914 26.9749 48.0497 27.1284 49.4658 27.7149C50.8819 28.3015 52.0923 29.2949 52.9439 30.5693C53.7955 31.8438 54.25 33.3422 54.25 34.875C54.2474 36.9296 53.4301 38.8994 51.9772 40.3522C50.5244 41.8051 48.5546 42.6224 46.5 42.625ZM46.5 31C45.7336 31 44.9844 31.2273 44.3472 31.6531C43.7099 32.0788 43.2133 32.684 42.92 33.3921C42.6267 34.1002 42.5499 34.8793 42.6995 35.631C42.849 36.3827 43.218 37.0731 43.76 37.615C44.3019 38.157 44.9923 38.526 45.744 38.6755C46.4957 38.8251 47.2748 38.7483 47.9829 38.455C48.691 38.1617 49.2962 37.6651 49.7219 37.0278C50.1477 36.3906 50.375 35.6414 50.375 34.875C50.374 33.8476 49.9654 32.8626 49.2389 32.1361C48.5124 31.4096 47.5274 31.001 46.5 31ZM58.125 54.25H54.25V50.375C54.2495 49.8613 54.0452 49.3688 53.682 49.0056C53.3187 48.6423 52.8262 48.438 52.3125 48.4375H40.6875C40.1738 48.438 39.6813 48.6423 39.318 49.0056C38.9548 49.3688 38.7505 49.8613 38.75 50.375V54.25H34.875V50.375C34.8765 48.8339 35.4894 47.3564 36.5791 46.2666C37.6689 45.1769 39.1464 44.564 40.6875 44.5625H52.3125C53.8536 44.564 55.3311 45.1769 56.4209 46.2666C57.5106 47.3564 58.1235 48.8339 58.125 50.375V54.25Z" fill="#C5528B"/>
<path d="M27.125 53.7327L16.9841 48.3271C14.1926 46.8422 11.8581 44.6251 10.2313 41.9138C8.60443 39.2025 7.74666 36.0994 7.75001 32.9375V7.75H46.5V19.375H50.375V7.75C50.374 6.7226 49.9654 5.73758 49.2389 5.01109C48.5124 4.28461 47.5274 3.87603 46.5 3.875H7.75001C6.72261 3.87603 5.73759 4.28461 5.01111 5.01109C4.28463 5.73758 3.87604 6.7226 3.87501 7.75V32.9375C3.8707 36.8015 4.91878 40.5938 6.90677 43.9072C8.89476 47.2207 11.7476 49.9301 15.159 51.7448L27.125 58.125V53.7327Z" fill="#C5528B"/>
</svg>
