<svg width="40" height="41" fill="none" xmlns="http://www.w3.org/2000/svg"><path d="M40 20.5c0-11.046-8.954-20-20-20S0 9.454 0 20.5s8.954 20 20 20 20-8.954 20-20z" fill="#2FACE6"/><mask id="a" style="mask-type:alpha" maskUnits="userSpaceOnUse" x="8" y="10" width="25" height="21"><path d="M8.181 10.072h24v20.901h-24V10.072z" fill="#fff"/></mask><g mask="url(#a)"><path fill-rule="evenodd" clip-rule="evenodd" d="M15.938 21.052l10.82-6.664c.193-.119.393.144.226.299l-8.929 8.299a1.855 1.855 0 00-.573 1.108l-.304 2.254c-.04.301-.463.331-.546.04l-1.17-4.111a1.088 1.088 0 01.476-1.225zm-7.334-.967l5.537 2.067 2.142 6.89a.651.651 0 001.035.312l3.086-2.515a.92.92 0 011.122-.032l5.566 4.041a.653.653 0 001.022-.394l4.077-19.612a.652.652 0 00-.874-.741L8.6 18.865a.652.652 0 00.005 1.22z" fill="#FFFFFE"/></g></svg>