<svg width="40" height="41" fill="none" xmlns="http://www.w3.org/2000/svg"><path d="M40 20.5c0-11.046-8.954-20-20-20S0 9.454 0 20.5s8.954 20 20 20 20-8.954 20-20z" fill="#4A76A8"/><path fill-rule="evenodd" clip-rule="evenodd" d="M29.377 22.037c.862.859 1.773 1.667 2.546 2.613.341.42.665.852.913 1.34.35.692.032 1.455-.576 1.496l-3.789-.002c-.977.083-1.756-.319-2.41-1-.526-.544-1.012-1.124-1.516-1.686a3.563 3.563 0 00-.681-.618c-.517-.343-.966-.237-1.262.313-.3.559-.369 1.178-.399 1.802-.04.908-.31 1.148-1.205 1.19-1.915.091-3.732-.204-5.42-1.19-1.488-.867-2.643-2.093-3.647-3.48-1.956-2.702-3.453-5.67-4.8-8.722-.303-.688-.08-1.057.663-1.07 1.236-.024 2.471-.022 3.708-.002.503.008.835.301 1.03.786.667 1.675 1.485 3.269 2.512 4.748.274.393.553.786.95 1.063.439.307.773.206.98-.294.131-.316.189-.656.218-.995.098-1.166.11-2.33-.061-3.49-.105-.726-.506-1.195-1.215-1.332-.362-.07-.309-.207-.133-.418.304-.364.591-.589 1.162-.589h4.28c.674.134.824.444.916 1.135l.004 4.848c-.007.268.13 1.061.604 1.24.378.125.628-.184.855-.428 1.025-1.11 1.756-2.42 2.41-3.777.29-.598.539-1.217.78-1.836.18-.46.46-.686.968-.676l4.12.004c.123 0 .246.002.364.022.695.121.885.426.67 1.116-.337 1.085-.995 1.989-1.637 2.897-.687.97-1.423 1.905-2.103 2.88-.627.89-.577 1.34.201 2.112z" fill="#FFFFFE"/></svg>